<svg width="28" height="28" viewBox="0 0 28 28" fill="none" xmlns="http://www.w3.org/2000/svg">
<path d="M14.175 19.25V21.7" stroke="white" stroke-width="1.75" stroke-linecap="round" stroke-linejoin="round"/>
<path d="M8.34155 25.6667H20.0082V24.5001C20.0082 23.2167 18.9582 22.1667 17.6749 22.1667H10.6749C9.39155 22.1667 8.34155 23.2167 8.34155 24.5001V25.6667Z" fill="#B8D468" stroke="white" stroke-width="1.75" stroke-miterlimit="10"/>
<path d="M7.17505 25.6667H21.175" stroke="white" stroke-width="1.75" stroke-linecap="round" stroke-linejoin="round"/>
<path d="M14.0002 18.6666C9.48516 18.6666 5.8335 15.0149 5.8335 10.4999V6.99992C5.8335 4.42159 7.92183 2.33325 10.5002 2.33325H17.5002C20.0785 2.33325 22.1668 4.42159 22.1668 6.99992V10.4999C22.1668 15.0149 18.5152 18.6666 14.0002 18.6666Z" fill="white" stroke="white" stroke-width="1.75" stroke-linecap="round" stroke-linejoin="round"/>
<path d="M6.38155 13.5916C5.50655 13.3116 4.73655 12.7983 4.12988 12.1916C3.07988 11.025 2.37988 9.62495 2.37988 7.99162C2.37988 6.35828 3.66322 5.07495 5.29655 5.07495H6.05488C5.82155 5.61162 5.70488 6.20662 5.70488 6.82495V10.325C5.70488 11.4916 5.94988 12.5883 6.38155 13.5916Z" stroke="white" stroke-width="1.75" stroke-linecap="round" stroke-linejoin="round"/>
<path d="M21.6184 13.5916C22.4934 13.3116 23.2634 12.7983 23.8701 12.1916C24.9201 11.025 25.6201 9.62495 25.6201 7.99162C25.6201 6.35828 24.3367 5.07495 22.7034 5.07495H21.9451C22.1784 5.61162 22.2951 6.20662 22.2951 6.82495V10.325C22.2951 11.4916 22.0501 12.5883 21.6184 13.5916Z" stroke="white" stroke-width="1.75" stroke-linecap="round" stroke-linejoin="round"/>
</svg>
