<?xml version="1.0" encoding="utf-8"?>
<!-- Generator: Adobe Illustrator 26.0.2, SVG Export Plug-In . SVG Version: 6.00 Build 0)  -->
<svg version="1.1" id="outline" xmlns="http://www.w3.org/2000/svg" xmlns:xlink="http://www.w3.org/1999/xlink" x="0px" y="0px"
	 viewBox="0 0 512 512" enable-background="new 0 0 512 512" xml:space="preserve">
<g>
	<path d="M280,80h-48c-4.418,0-8,3.582-8,8v32c0,4.418,3.582,8,8,8h48c4.418,0,8-3.582,8-8V88C288,83.582,284.418,80,280,80z
		 M272,112h-32V96h32V112z"/>
	<path d="M488,168c4.418,0,8-3.582,8-8s-3.582-8-8-8h-24v-8c0-4.418-3.582-8-8-8s-8,3.582-8,8v8h-32v-8c0-4.418-3.582-8-8-8
		s-8,3.582-8,8v8h-24c-4.418,0-8,3.582-8,8s3.582,8,8,8h24v16h-24c-4.418,0-8,3.582-8,8s3.582,8,8,8h24v8h-48v-86.347
		c2.711,1.499,5.704,2.247,8.69,2.247c5.115,0,10.2-2.164,13.755-6.365l7.751-9.16c6.411-7.576,5.463-18.956-2.114-25.369
		l-54.504-46.118c-0.873-0.738-1.895-1.281-2.996-1.592l-64.411-18.167c-1.421-0.4-2.923-0.4-4.344,0l-64.411,18.167
		c-1.101,0.311-2.123,0.854-2.996,1.592l-54.505,46.119c-7.576,6.412-8.523,17.792-2.113,25.368l7.751,9.16
		c5.631,6.654,15.092,8.191,22.445,4.125V208h-48v-8h24c4.418,0,8-3.582,8-8s-3.582-8-8-8h-24v-16h24c4.418,0,8-3.582,8-8
		s-3.582-8-8-8h-24v-8c0-4.418-3.582-8-8-8s-8,3.582-8,8v8H64v-8c0-4.418-3.582-8-8-8s-8,3.582-8,8v8H24c-4.418,0-8,3.582-8,8
		s3.582,8,8,8h24v16H24c-4.418,0-8,3.582-8,8s3.582,8,8,8h24v8H24c-4.418,0-8,3.582-8,8v272c0,4.418,3.582,8,8,8h151.996
		c0.004,0,0.009,0.001,0.013,0.001c0.007,0,0.014-0.001,0.021-0.001h159.938c0.007,0,0.014,0.001,0.021,0.001
		c0.004,0,0.009-0.001,0.013-0.001H488c4.418,0,8-3.582,8-8V216c0-4.418-3.582-8-8-8h-24v-8h24c4.418,0,8-3.582,8-8s-3.582-8-8-8
		h-24v-16H488z M416,168h32v16h-32V168z M416,200h32v8h-32V200z M152.587,107.434c-0.842,0.713-2.106,0.606-2.819-0.235l-7.751-9.16
		c-0.712-0.842-0.606-2.106,0.235-2.818l53.179-44.997L256,33.14l60.569,17.083l53.178,44.996c0.842,0.713,0.948,1.978,0.236,2.819
		l-7.751,9.16c-0.712,0.843-1.978,0.947-2.819,0.235L310.21,65.801c-0.873-0.738-1.895-1.281-2.996-1.592l-49.042-13.833
		c-1.42-0.4-2.924-0.4-4.344,0l-49.042,13.833c-1.101,0.311-2.123,0.854-2.996,1.592L152.587,107.434z M296,144h-80
		c-4.418,0-8,3.582-8,8v56h-32v-99.417l34.8-29.446L256,66.388l45.2,12.749l34.8,29.446V208h-32v-56
		C304,147.582,300.418,144,296,144z M243.194,184L224,199.355v-30.71L243.194,184z M238.806,160h34.387L256,173.755L238.806,160z
		 M256,194.245L273.194,208h-34.387L256,194.245z M268.806,184L288,168.645v30.71L268.806,184z M64,168h32v16H64V168z M64,200h32v8
		H64V200z M32,224h92.054L32,447.56V224z M169.09,480H35.946l105.412-256h65.38L169.09,480z M185.263,480l37.647-256h66.181
		l37.647,256H185.263z M342.91,480l-37.647-256h73.231l97.882,256H342.91z M480,224v220.676L395.624,224H480z"/>
	<path d="M408,88h60c15.439,0,28-12.561,28-28s-12.561-28-28-28h-0.287c-5.642-9.759-16.164-16-27.713-16
		c-14.884,0-27.426,10.214-30.988,24H408c-13.234,0-24,10.767-24,24S394.766,88,408,88z M408,56h8c4.418,0,8-3.582,8-8
		c0-8.822,7.178-16,16-16c6.768,0,12.831,4.287,15.086,10.667c1.13,3.196,4.152,5.333,7.542,5.333H468c6.617,0,12,5.383,12,12
		s-5.383,12-12,12h-60c-4.411,0-8-3.589-8-8S403.589,56,408,56z"/>
	<path d="M72,48c4.418,0,8-3.582,8-8c0-4.411,3.589-8,8-8s8,3.589,8,8c0,4.418,3.582,8,8,8s8-3.582,8-8c0-4.411,3.589-8,8-8
		s8,3.589,8,8c0,4.418,3.582,8,8,8s8-3.582,8-8c0-13.233-10.767-24-24-24c-6.141,0-11.751,2.318-16,6.126
		C99.751,18.318,94.141,16,88,16c-13.233,0-24,10.767-24,24C64,44.418,67.582,48,72,48z"/>
	<path d="M24,88c4.418,0,8-3.582,8-8c0-4.411,3.589-8,8-8s8,3.589,8,8c0,4.418,3.582,8,8,8s8-3.582,8-8c0-4.411,3.589-8,8-8
		s8,3.589,8,8c0,4.418,3.582,8,8,8s8-3.582,8-8c0-13.233-10.767-24-24-24c-6.141,0-11.751,2.318-16,6.126
		C51.751,58.318,46.141,56,40,56c-13.233,0-24,10.767-24,24C16,84.418,19.582,88,24,88z"/>
	<path d="M277.47,256.41c-0.28,0.094-6.806,2.3-13.47,6.651V256c0-4.418-3.582-8-8-8s-8,3.582-8,8v7.061
		c-6.664-4.351-13.19-6.557-13.47-6.651c-4.193-1.394-8.723,0.869-10.119,5.06c-1.397,4.192,0.868,8.723,5.06,10.12
		c3.914,1.305,18.53,7.913,18.53,16.41c0,4.418,3.582,8,8,8s8-3.582,8-8c0-8.265,13.723-14.779,18.541-16.414
		c4.185-1.402,6.444-5.928,5.048-10.116C286.192,257.279,281.661,255.017,277.47,256.41z"/>
	<path d="M277.47,312.41c-0.28,0.094-6.806,2.3-13.47,6.651V312c0-4.418-3.582-8-8-8s-8,3.582-8,8v7.061
		c-6.664-4.351-13.19-6.557-13.47-6.651c-4.193-1.396-8.723,0.869-10.119,5.06c-1.397,4.192,0.868,8.723,5.06,10.12
		c3.914,1.305,18.53,7.913,18.53,16.41c0,4.418,3.582,8,8,8s8-3.582,8-8c0-8.265,13.723-14.779,18.541-16.414
		c4.185-1.402,6.444-5.928,5.048-10.116C286.192,313.279,281.661,311.014,277.47,312.41z"/>
	<path d="M277.47,368.41c-0.28,0.094-6.806,2.3-13.47,6.651V368c0-4.418-3.582-8-8-8s-8,3.582-8,8v7.061
		c-6.664-4.351-13.19-6.557-13.47-6.651c-4.193-1.396-8.723,0.869-10.119,5.06c-1.397,4.192,0.868,8.723,5.06,10.12
		c3.914,1.305,18.53,7.913,18.53,16.41c0,4.418,3.582,8,8,8s8-3.582,8-8c0-8.265,13.723-14.779,18.541-16.414
		c4.185-1.402,6.444-5.928,5.048-10.116C286.192,369.279,281.661,367.014,277.47,368.41z"/>
	<path d="M277.47,424.41c-0.28,0.094-6.806,2.3-13.47,6.651V424c0-4.418-3.582-8-8-8s-8,3.582-8,8v7.061
		c-6.664-4.351-13.19-6.557-13.47-6.651c-4.193-1.396-8.723,0.869-10.119,5.06c-1.397,4.192,0.868,8.723,5.06,10.12
		c3.914,1.305,18.53,7.913,18.53,16.41c0,4.418,3.582,8,8,8s8-3.582,8-8c0-8.265,13.723-14.779,18.541-16.414
		c4.185-1.402,6.444-5.928,5.048-10.116C286.192,425.279,281.661,423.014,277.47,424.41z"/>
	<path d="M373.47,256.41c-0.28,0.094-6.806,2.3-13.47,6.651V256c0-4.418-3.582-8-8-8s-8,3.582-8,8v7.061
		c-6.664-4.351-13.19-6.557-13.47-6.651c-4.194-1.394-8.723,0.869-10.119,5.06c-1.397,4.192,0.868,8.723,5.06,10.12
		c3.914,1.305,18.53,7.913,18.53,16.41c0,4.418,3.582,8,8,8s8-3.582,8-8c0-8.265,13.723-14.779,18.541-16.414
		c4.185-1.402,6.444-5.928,5.048-10.116C382.192,257.279,377.66,255.017,373.47,256.41z"/>
	<path d="M376,312c0-4.418-3.582-8-8-8s-8,3.582-8,8v7.061c-6.664-4.351-13.19-6.557-13.47-6.651
		c-4.193-1.396-8.723,0.869-10.119,5.06c-1.397,4.192,0.868,8.723,5.06,10.12c3.914,1.305,18.53,7.913,18.53,16.41
		c0,4.418,3.582,8,8,8s8-3.582,8-8c0-8.265,13.723-14.779,18.541-16.414c4.185-1.402,6.444-5.928,5.048-10.116
		c-1.397-4.19-5.928-6.456-10.119-5.06c-0.28,0.094-6.806,2.3-13.47,6.651V312z"/>
	<path d="M392,368c0-4.418-3.582-8-8-8s-8,3.582-8,8v7.061c-6.664-4.351-13.19-6.557-13.47-6.651
		c-4.192-1.396-8.722,0.869-10.119,5.06c-1.397,4.192,0.868,8.723,5.06,10.12c3.914,1.305,18.53,7.913,18.53,16.41
		c0,4.418,3.582,8,8,8s8-3.582,8-8c0-8.265,13.723-14.779,18.541-16.414c4.185-1.402,6.444-5.928,5.048-10.116
		c-1.396-4.19-5.928-6.456-10.119-5.06c-0.28,0.094-6.806,2.3-13.47,6.651V368z"/>
	<path d="M408,424c0-4.418-3.582-8-8-8s-8,3.582-8,8v7.061c-6.664-4.351-13.19-6.557-13.47-6.651
		c-4.194-1.396-8.723,0.869-10.119,5.06c-1.397,4.192,0.868,8.723,5.06,10.12c3.914,1.305,18.53,7.913,18.53,16.41
		c0,4.418,3.582,8,8,8s8-3.582,8-8c0-8.265,13.723-14.779,18.541-16.414c4.185-1.402,6.444-5.928,5.048-10.116
		c-1.397-4.19-5.929-6.456-10.119-5.06c-0.28,0.094-6.806,2.3-13.47,6.651V424z"/>
	<path d="M191.589,261.47c-1.396-4.19-5.928-6.453-10.119-5.06c-0.28,0.094-6.806,2.3-13.47,6.651V256c0-4.418-3.582-8-8-8
		s-8,3.582-8,8v7.061c-6.664-4.351-13.19-6.557-13.47-6.651c-4.192-1.394-8.722,0.869-10.119,5.06
		c-1.397,4.192,0.868,8.723,5.06,10.12c3.914,1.305,18.53,7.913,18.53,16.41c0,4.418,3.582,8,8,8s8-3.582,8-8
		c0-8.269,13.736-14.786,18.53-16.41C190.721,270.192,192.987,265.662,191.589,261.47z"/>
	<path d="M165.47,312.41c-0.28,0.094-6.806,2.3-13.47,6.651V312c0-4.418-3.582-8-8-8s-8,3.582-8,8v7.061
		c-6.664-4.351-13.19-6.557-13.47-6.651c-4.193-1.396-8.723,0.869-10.119,5.06c-1.397,4.192,0.868,8.723,5.06,10.12
		c3.914,1.305,18.53,7.913,18.53,16.41c0,4.418,3.582,8,8,8s8-3.582,8-8c0-8.269,13.736-14.786,18.53-16.41
		c4.191-1.397,6.457-5.928,5.06-10.12C174.192,313.279,169.661,311.014,165.47,312.41z"/>
	<path d="M149.47,368.41c-0.28,0.094-6.806,2.3-13.47,6.651V368c0-4.418-3.582-8-8-8s-8,3.582-8,8v7.061
		c-6.664-4.351-13.19-6.557-13.47-6.651c-4.194-1.396-8.723,0.869-10.119,5.06c-1.397,4.192,0.868,8.723,5.06,10.12
		c3.914,1.305,18.53,7.913,18.53,16.41c0,4.418,3.582,8,8,8s8-3.582,8-8c0-8.269,13.736-14.786,18.53-16.41
		c4.191-1.397,6.457-5.928,5.06-10.12C158.192,369.279,153.66,367.014,149.47,368.41z"/>
	<path d="M133.47,424.41c-0.28,0.094-6.806,2.3-13.47,6.651V424c0-4.418-3.582-8-8-8s-8,3.582-8,8v7.061
		c-6.664-4.351-13.19-6.557-13.47-6.651c-4.192-1.396-8.722,0.869-10.119,5.06c-1.397,4.192,0.868,8.723,5.06,10.12
		C89.384,440.895,104,447.503,104,456c0,4.418,3.582,8,8,8s8-3.582,8-8c0-8.269,13.736-14.786,18.53-16.41
		c4.191-1.397,6.457-5.928,5.06-10.12C142.192,425.279,137.66,423.014,133.47,424.41z"/>
</g>
</svg>
