<?xml version="1.0" encoding="UTF-8" standalone="no"?> <svg xmlns="http://www.w3.org/2000/svg" viewBox="0 0 64 64"><g id="Line_Icons" data-name="Line Icons"><path d="M46,49H38a7,7,0,0,0-5,2.11v-8a4.11,4.11,0,0,1,1.21-2.92A2.55,2.55,0,0,1,38.54,42c.05.6-.62,2.38-1.4,1.91a.54.54,0,0,1-.19-.59,1,1,0,0,0-1.9-.63,2.53,2.53,0,0,0,.87,2.8c2.3,1.73,4.74-1.19,4.62-3.48a4.57,4.57,0,0,0-7.75-3.21A6.09,6.09,0,0,0,31,43.12v3A7,7,0,0,0,26,44H20a1,1,0,0,0-1,1,7,7,0,0,0,7,7h5v9a1,1,0,0,0,2,0V59h7a7,7,0,0,0,7-7V50A1,1,0,0,0,46,49ZM26,50a5,5,0,0,1-4.9-4H26a5,5,0,0,1,4.9,4Zm19,2a5,5,0,0,1-5,5H33a5.17,5.17,0,0,1,5-6h7Z"/><path d="M53,39a4,4,0,0,0,0,8A4,4,0,0,0,53,39Zm0,6a2,2,0,0,1,0-4A2,2,0,0,1,53,45Z"/><path d="M11,38a4,4,0,0,0,0,8A4,4,0,0,0,11,38Zm0,6a2,2,0,0,1,0-4A2,2,0,0,1,11,44Z"/><path d="M36,32a4,4,0,0,0-8,0A4,4,0,0,0,36,32Zm-6,0a2,2,0,0,1,4,0A2,2,0,0,1,30,32Z"/><path d="M2,19a1,1,0,0,0,.29.71L13.46,30.88a5,5,0,0,0,6.66.37,2.45,2.45,0,0,0,2.59-.54l1.44-1.45a2.43,2.43,0,0,0,2.56-.55l1-1a2.44,2.44,0,0,0,.55-2.56l1.45-1.44a2.43,2.43,0,0,0,0-3.42l-5-5c1.15-.09,4.26-1.53,3-3l-8-8A1,1,0,0,0,19,4H10.42L8.71,2.29A1,1,0,0,0,8,2H3A1,1,0,0,0,2,3V19Zm26.29,3.29L27,23.59l-6.29-6.3a1,1,0,0,0-1.42,1.42l7,7a.41.41,0,0,1,0,.58l-1,1a.42.42,0,0,1-.59,0h0l-6.13-6.07a1,1,0,0,0-1.4,1.43L22.58,28l-1.29,1.29a.41.41,0,0,1-.58,0l-6-6a1,1,0,0,0-1.42,1.42l5.22,5.21a3,3,0,0,1-3.63-.46L4,18.59V9.42l2.63,2.63A9,9,0,0,0,19,12.4l9.3,9.31A.41.41,0,0,1,28.29,22.29ZM7.59,4l1.7,1.71A1,1,0,0,0,10,6h8.59l6.93,6.93a3.08,3.08,0,0,1-3.64-.47l-2.17-2.17a1,1,0,0,0-1.42,0,7.05,7.05,0,0,1-9.66.86C8.33,11,4.36,6.93,4,6.59V4Z"/><path d="M23,37.36a1,1,0,0,0,.9-1.43c-.41-.77-.53-2.23-1.74-1.88a1,1,0,0,0-.66,1.25C21.82,36.05,22,37.34,23,37.36Z"/><path d="M28.7,42.5a1,1,0,0,0,.6-1.91,9,9,0,0,1-3.6-2.16,1,1,0,0,0-1.41,0C22.88,40.05,27.51,42.12,28.7,42.5Z"/><path d="M40.56,37.26c1.93.82,2.43-4,2.44-5.26s-.34-5.61-2.23-4.92a1,1,0,0,0-.52,1.32,9,9,0,0,1-.15,7.53A1,1,0,0,0,40.56,37.26Z"/><path d="M34.7,23.41c.81.17,1.5.79,2.3.93a1,1,0,0,0,.5-1.87c-1-.44-2.81-1.81-3.45-.31A1,1,0,0,0,34.7,23.41Z"/><path d="M45.21,34.79a13.31,13.31,0,0,1-.53,1.87,1,1,0,0,0,1.87.68c.25-1,1.35-2.86-.15-3.32A1,1,0,0,0,45.21,34.79Z"/><path d="M46.19,30a1,1,0,0,0,1-1.21,15.45,15.45,0,0,0-6.47-9.62,1,1,0,0,0-1.12,1.66,13.43,13.43,0,0,1,5.63,8.38A1,1,0,0,0,46.19,30Z"/><path d="M17.6,34a1,1,0,0,0-.77,1.19,15.59,15.59,0,0,0,3.41,6.89,1,1,0,0,0,1.52-1.3,13.45,13.45,0,0,1-3-6A1,1,0,0,0,17.6,34Z"/><path d="M49.77,29.16a18.25,18.25,0,0,1-.17,6.63,1,1,0,0,0,1.95.42,20.07,20.07,0,0,0,.2-7.37A1,1,0,0,0,50.6,28,1,1,0,0,0,49.77,29.16Z"/><path d="M46.91,20.19a1,1,0,0,0-.23,1.39,18.27,18.27,0,0,1,1.65,2.84,1,1,0,1,0,1.81-.84,19.58,19.58,0,0,0-1.84-3.16A1,1,0,0,0,46.91,20.19Z"/><path d="M34.84,14.23a17.91,17.91,0,0,1,6.87,2.61,1,1,0,0,0,1.08-1.68,19.73,19.73,0,0,0-7.63-2.91,1,1,0,0,0-.32,2Z"/><path d="M13,32a1,1,0,0,0-1,1c.16,1-.16,3.07,1.36,2.94,1.44-.32.56-2.05.64-3A1,1,0,0,0,13,32Z"/><path d="M43,48.49c.87-.12,2.17-1.16,1.45-2.1A1,1,0,0,0,43,46.21l-.62.47A1,1,0,0,0,43,48.49Z"/><path d="M32,8a1,1,0,0,0,1-1V3a1,1,0,0,0-2,0V7A1,1,0,0,0,32,8Z"/><path d="M32,21a1,1,0,0,0,1-1V11a1,1,0,0,0-2,0v9A1,1,0,0,0,32,21Z"/><path d="M32,26a1,1,0,0,0,1-1V24a1,1,0,0,0-2,0v1A1,1,0,0,0,32,26Z"/><path d="M40.71,23.29a1,1,0,0,0-1.42,0l-3,3a1,1,0,0,0,1.42,1.42l3-3A1,1,0,0,0,40.71,23.29Z"/><path d="M45,20a1,1,0,0,0,.71-.29l4-4a1,1,0,0,0-1.42-1.42l-4,4A1,1,0,0,0,45,20Z"/><path d="M52,13a1,1,0,0,0,.71-.29l9-9a1,1,0,0,0-1.42-1.42l-9,9A1,1,0,0,0,52,13Z"/><path d="M61,31H55a1,1,0,0,0,0,2h6A1,1,0,0,0,61,31Z"/><path d="M49,32a1,1,0,0,0-1-1H45a1,1,0,0,0,0,2h3A1,1,0,0,0,49,32Z"/><path d="M45.71,44.29a1,1,0,0,0-1.42,1.42l6,6A1,1,0,0,0,51,52a1,1,0,0,0,.71-1.71Z"/><path d="M57.71,56.29a1,1,0,0,0-1.42,1.42l4,4a1,1,0,0,0,1.42-1.42Z"/><path d="M16.29,46.29l-2,2A1,1,0,0,0,15,50a1,1,0,0,0,.71-.29l2-2A1,1,0,0,0,16.29,46.29Z"/><path d="M11.29,51.29l-9,9a1,1,0,0,0,1.42,1.42l9-9A1,1,0,0,0,11.29,51.29Z"/><path d="M3,33H7a1,1,0,0,0,0-2H3A1,1,0,0,0,3,33Z"/><path d="M26,32a1,1,0,0,0-1-1H24a1,1,0,0,0,0,2h1A1,1,0,0,0,26,32Z"/><path d="M42,43a1.07,1.07,0,0,0,.71-.29,1,1,0,0,0,0-1.42,1,1,0,0,0-.16-.12.56.56,0,0,0-.17-.09.6.6,0,0,0-.19-.06,1,1,0,0,0-.9.27,1,1,0,0,0,0,1.42A1,1,0,0,0,42,43Z"/><path d="M54.38,53.08a.93.93,0,0,0-.57-.06.6.6,0,0,0-.19.06.56.56,0,0,0-.17.09,1,1,0,0,0-.16.12,1,1,0,1,0,1.42,0A1,1,0,0,0,54.38,53.08Z"/></g></svg>