<?xml version="1.0" encoding="UTF-8" standalone="no"?> <svg xmlns="http://www.w3.org/2000/svg" viewBox="0 0 512 512"><g id="Seed"><path d="M99.5,250.8735a4.5011,4.5011,0,0,0-3.4453,3.4463c-8.8047,40.6524,3.0127,81.9981,31.6132,110.5977a118.3613,118.3613,0,0,0,84.0635,34.4707,125.3642,125.3642,0,0,0,26.5342-2.8574,4.5011,4.5011,0,0,0,3.4463-3.4454c8.8057-40.6542-3.0117-82-31.6123-110.6C181.5,253.8843,140.1542,242.0718,99.5,250.8735Zm34.5312,107.6807C108.3737,332.8958,97.35,296.09,104.1927,259.5117A157.7651,157.7651,0,0,1,231.1652,388.7276C195.2169,394.8428,159.2423,383.7645,134.0311,358.5542Z"/><path d="M407.81,115.2661a4.5007,4.5007,0,0,0-4.0869-2.6533c-.1553-.001-.3086-.001-.4629-.001-41.414,0-79.1953,20.1416-101.1338,53.9414-22.0215,33.9268-24.9746,76.8262-7.8994,114.7569a4.5015,4.5015,0,0,0,4.0869,2.6523c.1573.001.3086.001.4658.001,41.4112,0,79.1934-20.1426,101.1309-53.94C421.9315,196.0962,424.8846,153.1958,407.81,115.2661ZM392.3622,225.1226c-19.7556,30.4368-53.4617,48.88-90.6629,49.799a157.7641,157.7641,0,0,1,99.9568-151.0854C415.1185,157.7227,411.774,195.2162,392.3622,225.1226Z"/></g></svg>