<svg width="35" height="35" viewBox="0 0 35 35" fill="none" xmlns="http://www.w3.org/2000/svg">
<g opacity="0.5">
<path d="M12.9375 14.375C14.5253 14.375 15.8125 13.0878 15.8125 11.5C15.8125 9.91218 14.5253 8.625 12.9375 8.625C11.3497 8.625 10.0625 9.91218 10.0625 11.5C10.0625 13.0878 11.3497 14.375 12.9375 14.375Z" stroke="#979797" stroke-width="2.15625" stroke-linecap="round" stroke-linejoin="round"/>
<path d="M18.6875 2.875H12.9375C5.75 2.875 2.875 5.75 2.875 12.9375V21.5625C2.875 28.75 5.75 31.625 12.9375 31.625H21.5625C28.75 31.625 31.625 28.75 31.625 21.5625V14.375" stroke="#979797" stroke-width="2.15625" stroke-linecap="round" stroke-linejoin="round"/>
<path d="M25.875 2.875V11.5L28.75 8.625" stroke="#979797" stroke-width="2.15625" stroke-linecap="round" stroke-linejoin="round"/>
<path d="M25.875 11.5L23 8.625" stroke="#979797" stroke-width="2.15625" stroke-linecap="round" stroke-linejoin="round"/>
<path d="M3.83789 27.2408L10.9248 22.4827C12.0604 21.7208 13.6991 21.8071 14.7198 22.6839L15.1941 23.1008C16.3154 24.0639 18.1266 24.0639 19.2479 23.1008L25.2279 17.9689C26.3491 17.0058 28.1604 17.0058 29.2816 17.9689L31.6248 19.9814" stroke="#979797" stroke-width="2.15625" stroke-linecap="round" stroke-linejoin="round"/>
</g>
</svg>
