<?xml version="1.0" encoding="UTF-8" standalone="no"?> <svg width="64" height="64" viewBox="0 0 64 64" fill="none" xmlns="http://www.w3.org/2000/svg">
<path d="M19.8001 36.4701H20.0001C20.6397 36.4239 21.2351 36.1268 21.6566 35.6436C22.078 35.1603 22.2914 34.53 22.2501 33.8901V33.4401L39.1101 32.3001L41.0001 34.0001C41.6015 34.5255 42.3006 34.9273 43.0573 35.1825C43.814 35.4376 44.6135 35.5413 45.4103 35.4874C46.207 35.4336 46.9854 35.2233 47.7008 34.8686C48.4163 34.5138 49.0549 34.0216 49.5801 33.4201L55.5001 26.6501C56.5261 25.4807 57.063 23.9615 56.9997 22.4071C56.9364 20.8527 56.2777 19.3822 55.1601 18.3001C55.8341 17.5496 56.3521 16.6727 56.6841 15.7202C57.0162 14.7678 57.1555 13.7588 57.0941 12.752C57.0327 11.7452 56.7717 10.7607 56.3264 9.85562C55.8811 8.95057 55.2603 8.14308 54.5001 7.4801L54.3701 7.3701C52.8489 6.04044 50.8619 5.36934 48.8461 5.50435C46.8302 5.63937 44.9504 6.56946 43.6201 8.0901V8.0901C42.4447 7.1656 40.9686 6.70917 39.4765 6.80889C37.9844 6.90861 36.5821 7.55741 35.5401 8.6301L35.0001 8.2001C34.6912 7.92955 34.3319 7.72265 33.9428 7.59126C33.5537 7.45987 33.1426 7.40659 32.7328 7.43446C32.3231 7.46233 31.9229 7.57081 31.5553 7.75368C31.1876 7.93655 30.8596 8.1902 30.5901 8.5001L27.7201 11.7801C27.4484 12.0878 27.24 12.4461 27.107 12.8344C26.974 13.2228 26.9189 13.6335 26.9449 14.0432C26.9709 14.4529 27.0775 14.8534 27.2586 15.2218C27.4396 15.5902 27.6916 15.9193 28.0001 16.1901L28.6401 16.7501C27.9717 17.9667 27.7382 19.3749 27.9782 20.7421C28.2181 22.1094 28.9173 23.3539 29.9601 24.2701L33.9601 27.7701L21.9601 28.5701V28.1201C21.9115 27.476 21.6095 26.8774 21.1202 26.4556C20.631 26.0338 19.9944 25.8233 19.3501 25.8701C18.7117 25.9189 18.1169 26.2127 17.6901 26.6901C17.4643 26.9231 17.287 27.1987 17.1685 27.5009C17.0501 27.803 16.9928 28.1257 17.0001 28.4501L17.3901 34.2201C17.4331 34.8303 17.7056 35.4016 18.1527 35.819C18.5998 36.2365 19.1884 36.4691 19.8001 36.4701V36.4701ZM49.0001 7.5001C49.737 7.44698 50.4771 7.54073 51.1775 7.77591C51.8779 8.01109 52.5246 8.38301 53.0801 8.8701L53.2001 8.9801C54.3211 9.96148 55.0073 11.3472 55.1085 12.8335C55.2097 14.3199 54.7177 15.7858 53.7401 16.9101V16.9101L51.4801 15.0001L45.1001 9.4401C45.5861 8.87088 46.1821 8.40564 46.8522 8.07228C47.5224 7.73893 48.253 7.54431 49.0001 7.5001V7.5001ZM29.1701 13.1001L32.0501 9.8101C32.1563 9.68951 32.2871 9.59316 32.4338 9.52759C32.5804 9.46202 32.7395 9.42877 32.9001 9.4301C33.1706 9.43186 33.4321 9.52727 33.6401 9.7001L34.1701 10.1701L29.8101 15.1701L29.2801 14.7101C29.1659 14.6125 29.0723 14.493 29.0048 14.3588C28.9373 14.2245 28.8973 14.0781 28.887 13.9282C28.8768 13.7783 28.8965 13.6278 28.9452 13.4856C28.9938 13.3434 29.0702 13.2124 29.1701 13.1001V13.1001ZM30.8501 17.0001L36.3301 10.7301L36.7701 10.2301C37.1205 9.82413 37.5489 9.49276 38.03 9.25569C38.511 9.01862 39.0347 8.88069 39.5701 8.8501H39.8501C40.8362 8.8417 41.7906 9.19782 42.5301 9.8501L43.0301 10.2801L48.0301 14.7001L49.4401 15.9301L46.3601 19.5001C46.1865 19.7004 46.0996 19.9614 46.1183 20.2258C46.1371 20.4902 46.26 20.7363 46.4601 20.9101C46.6424 21.0709 46.8771 21.1598 47.1201 21.1601C47.2621 21.1599 47.4024 21.1295 47.5317 21.0709C47.6611 21.0123 47.7764 20.9268 47.8701 20.8201L51.0001 17.2401L51.6601 17.8201L46.0001 24.2801C45.8253 24.4791 45.7366 24.7394 45.7535 25.0037C45.7704 25.2681 45.8914 25.5149 46.0901 25.6901C46.2724 25.8509 46.5071 25.9398 46.7501 25.9401C46.8929 25.9387 47.0337 25.9067 47.163 25.8463C47.2924 25.786 47.4073 25.6986 47.5001 25.5901L53.1501 19.1401L53.6201 19.5401C54.433 20.2565 54.9293 21.2655 55.0005 22.3467C55.0718 23.4279 54.7121 24.4933 54.0001 25.3101L48.1001 32.0701C47.3851 32.8845 46.3768 33.3826 45.2956 33.4557C44.2144 33.5288 43.1482 33.1708 42.3301 32.4601L37.0701 27.8601L34.6801 25.7701L40.3201 19.3101C40.4938 19.1085 40.5804 18.8462 40.5607 18.5809C40.541 18.3155 40.4167 18.0688 40.2151 17.8951C40.0136 17.7214 39.7512 17.6349 39.4859 17.6545C39.2205 17.6742 38.9738 17.7985 38.8001 18.0001L33.1501 24.4601L32.4901 23.8901L35.6201 20.3101C35.7843 20.1086 35.8636 19.8512 35.8412 19.5923C35.8188 19.3334 35.6965 19.0933 35.5002 18.923C35.3039 18.7527 35.0491 18.6655 34.7896 18.6799C34.5301 18.6943 34.2864 18.8091 34.1101 19.0001L31.0001 22.5201C30.29 21.7851 29.8807 20.8109 29.853 19.7892C29.8252 18.7676 30.1809 17.7726 30.8501 17.0001V17.0001ZM36.0601 29.6301L36.9901 30.4401L22.0901 31.4401V31.1001V30.5501L36.0601 29.6301ZM19.1001 28.0001C19.1407 27.9557 19.1902 27.9203 19.2453 27.8961C19.3004 27.872 19.36 27.8598 19.4201 27.8601C19.4748 27.8546 19.53 27.8602 19.5825 27.8764C19.635 27.8927 19.6836 27.9194 19.7256 27.9548C19.7676 27.9902 19.802 28.0338 19.8268 28.0828C19.8517 28.1318 19.8664 28.1853 19.8701 28.2401L20.2501 34.0001C20.2556 34.0548 20.2501 34.11 20.2338 34.1625C20.2175 34.2149 20.1909 34.2636 20.1554 34.3056C20.12 34.3476 20.0765 34.382 20.0275 34.4068C19.9784 34.4316 19.9249 34.4464 19.8701 34.4501L19.9301 35.4501L19.8301 34.4501C19.7747 34.4556 19.7187 34.4497 19.6656 34.4328C19.6124 34.416 19.5633 34.3884 19.5212 34.3519C19.4791 34.3154 19.4449 34.2707 19.4206 34.2205C19.3963 34.1704 19.3826 34.1158 19.3801 34.0601L19.0001 28.3101C18.9953 28.2544 19.0017 28.1982 19.0189 28.145C19.036 28.0918 19.0637 28.0425 19.1001 28.0001Z" fill="black"/>
<path d="M58.2101 56.5201H52.6101V53.8401C54.3437 53.8458 56.0193 53.2161 57.3201 52.0701C59.3201 50.0701 59.0901 46.5901 59.0801 46.4501C59.0598 46.2156 58.9574 45.9957 58.7909 45.8293C58.6245 45.6628 58.4046 45.5604 58.1701 45.5401C58.0301 45.5401 54.5901 45.2501 52.5401 47.3001C52.0467 47.8031 51.656 48.3976 51.3901 49.0501C50.3507 48.2219 49.0346 47.8214 47.7101 47.9301C47.4756 47.9504 47.2557 48.0528 47.0893 48.2193C46.9228 48.3857 46.8204 48.6056 46.8001 48.8401C46.7379 49.5199 46.812 50.2053 47.0181 50.8561C47.2241 51.5069 47.558 52.11 48.0001 52.6301C48.7178 53.295 49.6357 53.7029 50.6101 53.7901V56.5201H42.2701V53.7901C43.2451 53.7052 44.1637 53.2969 44.8801 52.6301C45.3242 52.1112 45.6593 51.5082 45.8654 50.8571C46.0716 50.206 46.1446 49.52 46.0801 48.8401C46.0598 48.6056 45.9574 48.3857 45.7909 48.2193C45.6245 48.0528 45.4046 47.9504 45.1701 47.9301C43.8456 47.8214 42.5295 48.2219 41.4901 49.0501C41.2242 48.3976 40.8335 47.8031 40.3401 47.3001C38.2901 45.3001 34.8601 45.5201 34.7101 45.5401C34.4756 45.5604 34.2557 45.6628 34.0893 45.8293C33.9228 45.9957 33.8204 46.2156 33.8001 46.4501C33.8001 46.5901 33.5201 50.0201 35.5601 52.0701C36.8609 53.2161 38.5365 53.8458 40.2701 53.8401V56.5201H24.6101V53.8401C26.3437 53.8458 28.0193 53.2161 29.3201 52.0701C31.3201 50.0701 31.0901 46.5901 31.0801 46.4501C31.0598 46.2156 30.9574 45.9957 30.7909 45.8293C30.6245 45.6628 30.4046 45.5604 30.1701 45.5401C30.0301 45.5401 26.5901 45.2501 24.5401 47.3001C24.0467 47.8031 23.656 48.3976 23.3901 49.0501C22.3512 48.221 21.0347 47.8204 19.7101 47.9301C19.4756 47.9504 19.2557 48.0528 19.0893 48.2193C18.9228 48.3857 18.8204 48.6056 18.8001 48.8401C18.7379 49.5199 18.812 50.2053 19.018 50.8561C19.2241 51.5069 19.558 52.11 20.0001 52.6301C20.7178 53.295 21.6357 53.7029 22.6101 53.7901V56.5201H13.2701V53.7901C14.2451 53.7052 15.1637 53.2969 15.8801 52.6301C16.3242 52.1112 16.6592 51.5082 16.8654 50.8571C17.0716 50.206 17.1446 49.52 17.0801 48.8401C17.0598 48.6056 16.9574 48.3857 16.7909 48.2193C16.6245 48.0528 16.4046 47.9504 16.1701 47.9301C14.8456 47.8214 13.5295 48.2219 12.4901 49.0501C12.2242 48.3976 11.8335 47.8031 11.3401 47.3001C9.2901 45.3001 5.8601 45.5201 5.7101 45.5401C5.47557 45.5604 5.25572 45.6628 5.08926 45.8293C4.9228 45.9957 4.82041 46.2156 4.8001 46.4501C4.8001 46.5901 4.5201 50.0201 6.5601 52.0701C7.8609 53.2161 9.5365 53.8458 11.2701 53.8401V56.5201H8.2101C7.94488 56.5201 7.69053 56.6255 7.50299 56.813C7.31546 57.0005 7.2101 57.2549 7.2101 57.5201C7.2101 57.7853 7.31546 58.0397 7.50299 58.2272C7.69053 58.4147 7.94488 58.5201 8.2101 58.5201H58.2101C58.4753 58.5201 58.7297 58.4147 58.9172 58.2272C59.1047 58.0397 59.2101 57.7853 59.2101 57.5201C59.2101 57.2549 59.1047 57.0005 58.9172 56.813C58.7297 56.6255 58.4753 56.5201 58.2101 56.5201ZM54.0001 48.7101C54.8724 47.9691 55.9757 47.5553 57.1201 47.5401C57.0955 48.6845 56.679 49.7858 55.9401 50.6601C55.0671 51.3932 53.9698 51.806 52.8301 51.8301C52.8519 50.6869 53.2648 49.5857 54.0001 48.7101V48.7101ZM48.8501 50.0001C49.3141 50.0327 49.7507 50.2318 50.0796 50.5606C50.4084 50.8895 50.6075 51.3261 50.6401 51.7901C50.1761 51.7575 49.7395 51.5585 49.4106 51.2296C49.0817 50.9007 48.8827 50.4641 48.8501 50.0001V50.0001ZM42.8001 50.5601C43.1372 50.2608 43.5542 50.0662 44.0001 50.0001C43.9351 50.4553 43.7407 50.8822 43.4401 51.2301C43.0935 51.5327 42.6659 51.7273 42.2101 51.7901C42.2795 51.3274 42.4849 50.8958 42.8001 50.5501V50.5601ZM37.0001 50.6601C36.2605 49.787 35.847 48.6842 35.8301 47.5401C36.9733 47.5619 38.0745 47.9748 38.9501 48.7101C39.6854 49.5857 40.0983 50.6869 40.1201 51.8301C38.9769 51.8083 37.8757 51.3954 37.0001 50.6601ZM26.0001 48.7101C26.8724 47.9691 27.9757 47.5553 29.1201 47.5401C29.0955 48.6845 28.679 49.7858 27.9401 50.6601C27.0671 51.3932 25.9698 51.806 24.8301 51.8301C24.8519 50.6869 25.2648 49.5857 26.0001 48.7101V48.7101ZM20.8501 50.0001C21.3141 50.0327 21.7507 50.2318 22.0796 50.5606C22.4084 50.8895 22.6075 51.3261 22.6401 51.7901C22.1849 51.7251 21.758 51.5307 21.4101 51.2301C21.1095 50.8822 20.9151 50.4553 20.8501 50.0001V50.0001ZM13.8501 50.5601C14.1734 50.2694 14.5719 50.0753 15.0001 50.0001C14.9351 50.4553 14.7407 50.8822 14.4401 51.2301C14.0935 51.5327 13.6659 51.7273 13.2101 51.7901C13.2795 51.3274 13.4849 50.8958 13.8001 50.5501L13.8501 50.5601ZM8.0001 50.6601C7.26053 49.787 6.84699 48.6842 6.8301 47.5401C7.97328 47.5619 9.07447 47.9748 9.9501 48.7101C10.6854 49.5857 11.0983 50.6869 11.1201 51.8301C9.97691 51.8083 8.87573 51.3954 8.0001 50.6601V50.6601Z" fill="black"/>
<path d="M14.92 30.8697C9.85996 33.1397 7.28996 38.4297 9.17996 42.6597C9.25953 42.8367 9.38887 42.9868 9.55223 43.0915C9.71559 43.1963 9.9059 43.2512 10.1 43.2497C10.2374 43.2508 10.3735 43.2236 10.5 43.1697C10.6205 43.1157 10.7292 43.0384 10.8197 42.9421C10.9102 42.8459 10.9808 42.7326 11.0273 42.609C11.0737 42.4853 11.0953 42.3536 11.0906 42.2216C11.0859 42.0896 11.0551 41.9598 11 41.8397C9.54996 38.6197 11.68 34.5097 15.73 32.6897C15.8502 32.6366 15.9587 32.5603 16.0494 32.4652C16.1402 32.3701 16.2112 32.258 16.2586 32.1354C16.306 32.0128 16.3287 31.8821 16.3255 31.7507C16.3223 31.6193 16.2932 31.4899 16.24 31.3697C16.1308 31.1287 15.9306 30.9408 15.6832 30.8471C15.4358 30.7534 15.1614 30.7615 14.92 30.8697V30.8697Z" fill="black"/>
<path d="M16.74 36.6906C16.8602 36.6374 16.9688 36.5611 17.0595 36.466C17.1502 36.3709 17.2212 36.2589 17.2686 36.1363C17.316 36.0137 17.3387 35.8829 17.3355 35.7516C17.3323 35.6202 17.3032 35.4907 17.25 35.3706C17.196 35.25 17.1186 35.1413 17.0224 35.0508C16.9261 34.9603 16.8129 34.8897 16.6892 34.8433C16.5656 34.7968 16.4339 34.7752 16.3019 34.7799C16.1698 34.7846 16.04 34.8154 15.92 34.8706C14.4279 35.5186 13.2031 36.6586 12.45 38.1006C12.0926 38.7719 11.8909 39.5151 11.8597 40.275C11.8286 41.035 11.9688 41.7922 12.27 42.4906C12.3488 42.666 12.4766 42.815 12.638 42.9196C12.7995 43.0243 12.9876 43.0802 13.18 43.0806C13.3208 43.083 13.4605 43.0558 13.59 43.0006C13.7106 42.9465 13.8192 42.8692 13.9097 42.7729C14.0002 42.6767 14.0708 42.5635 14.1173 42.4398C14.1638 42.3161 14.1853 42.1845 14.1806 42.0524C14.1759 41.9204 14.1451 41.7906 14.09 41.6706C13.9127 41.2428 13.8341 40.7807 13.8601 40.3184C13.8861 39.8562 14.0159 39.4057 14.24 39.0006C14.7835 37.9665 15.6662 37.1508 16.74 36.6906V36.6906Z" fill="black"/>
<path d="M6.20992 39.5201H6.31992C6.45061 39.5064 6.57732 39.467 6.6928 39.4043C6.80827 39.3416 6.91025 39.2567 6.99291 39.1546C7.07557 39.0524 7.13728 38.935 7.17451 38.8089C7.21175 38.6829 7.22378 38.5508 7.20992 38.4201C6.71992 34.0601 10.3699 30.0701 15.3199 29.5201C15.4506 29.5064 15.5773 29.467 15.6928 29.4043C15.8083 29.3416 15.9103 29.2567 15.9929 29.1546C16.0756 29.0524 16.1373 28.935 16.1745 28.8089C16.2118 28.6829 16.2238 28.5508 16.2099 28.4201C16.1962 28.2885 16.1566 28.1609 16.0932 28.0447C16.0299 27.9285 15.9441 27.826 15.8408 27.7433C15.7376 27.6605 15.6189 27.599 15.4917 27.5624C15.3646 27.5258 15.2314 27.5148 15.0999 27.5301C9.09992 28.2001 4.61992 33.1901 5.21992 38.6401C5.2492 38.8823 5.366 39.1054 5.54833 39.2675C5.73067 39.4296 5.96597 39.5194 6.20992 39.5201V39.5201Z" fill="black"/>
</svg>
