<?xml version="1.0" encoding="utf-8"?>
<!-- Generator: Adobe Illustrator 23.0.2, SVG Export Plug-In . SVG Version: 6.00 Build 0)  -->
<svg version="1.1" id="Layer_1" xmlns="http://www.w3.org/2000/svg" xmlns:xlink="http://www.w3.org/1999/xlink" x="0px" y="0px"
	 viewBox="0 0 215.9287 503.4516" enable-background="new 0 0 215.9287 503.4516" xml:space="preserve">
<g>
	<path d="M138.0609,66.7807c-3.3835-2.8209-7.6255-4.6827-12.3438-5.1136c-12.376-1.1304-23.3231,7.9827-24.4534,20.3586
		c-0.994,10.8643,5.91,20.6257,15.9837,23.6145c6.2567-2.7002,13.5046-4.808,21.7338-6.3047L138.0609,66.7807z M115.52,87.3812
		l-2.5439-1.5898c2.4893-3.9844,16.8179-3.1704,22.8618-2.6372l-0.2642,2.9883C125.8394,85.284,116.4697,85.8616,115.52,87.3812z"/>
	<path d="M161.6511,122.6752l0.415,14.6802c0.0215,0.8022-0.0479,1.6162-0.208,2.4268c0.4495,15.2914,1.405,60.6053-0.6587,120.9402
		c23.032-3.1887,46.5065-0.7595,54.7292,0.3008c-4.3799-17.2168-27.8716-106.7656-48.9854-132.9297
		C165.2688,126.0183,163.488,124.2308,161.6511,122.6752z"/>
	<path d="M89.6183,136.2205c-0.1644,0.1726-0.3312,0.3391-0.4945,0.5141c0.1294,0.0164,0.2527,0.0337,0.3847,0.0496
		C89.5408,136.5953,89.5831,136.4087,89.6183,136.2205z"/>
	<path d="M92.7302,166.8945c2.416-1.4575,5.1846-2.228,8.0059-2.228c3.2148,0,6.3018,0.978,8.9287,2.8291l0.5596,0.394
		c-0.0908-4.4048-0.4619-8.5625-0.9941-12.3921c-1.9834,2.3428-4.9912,3.7573-8.2402,3.8325
		c-0.7217,0.0166-1.543,0.0278-2.4414,0.0278c-7.2504,0-16.0341-0.6742-23.2083-3.1952C55.2849,185.6407,9.3855,238.9428,0,249.7742
		c14.1436,7.8691,95.0327,51.2373,119.186,27.9902c3.1042-2.9885,6.7023-5.5201,10.6484-7.662
		c0.8058-20.5023,1.3258-41.0798,1.5393-61.5654c-0.9863,0.6621-2.0537,1.2139-3.1865,1.6396
		c-1.749,0.6567-3.582,0.9897-5.4492,0.9897c-0.8008,0-1.5986-0.063-2.3877-0.186l3.2588,25.1982
		c1.0957,8.4756-4.9082,16.2632-13.3848,17.3599c-0.6621,0.0859-1.3359,0.1294-2.0029,0.1294
		c-7.7588,0.0005-14.3604-5.8091-15.3564-13.5142l-7.5-57.9995C84.5769,176.0591,87.4685,170.0693,92.7302,166.8945z"/>
	<path d="M158.8479,139.5068c0.1567-0.6628,0.2393-1.3534,0.2192-2.0664l-3.666-129.6665C155.2781,3.4341,151.7224,0,147.408,0
		c-0.0762,0-0.1533,0.001-0.2305,0.0034c-4.416,0.1245-7.8955,3.8062-7.7705,8.2227l2.6563,93.9608
		c-0.7734-0.0933-1.5742-0.0752-2.3818,0.0704c-0.4086,0.0738-0.7974,0.1594-1.2009,0.2361l-5.4991,9.364l-9.3272-5.4775
		c-12.7555,4.441-21.8177,11.0167-26.9933,19.6649c-3.0146,5.0361-4.209,9.9258-4.5449,14.0186
		c-5.1631-0.4297-9.7891-1.2949-11.8662-2.3047c-0.6904-3.4497-3.6162-6.1528-7.2949-6.4067
		c-4.4121-0.3071-8.2275,3.0229-8.5322,7.4302c-0.2441,3.5464,1.0205,6.9644,3.5605,9.624
		c6.6348,6.9468,22.1553,7.9517,30.5654,7.9517c0.873,0,1.6709-0.0107,2.3721-0.0269c2.5752-0.0596,5.0068-1.2266,6.4619-3.3516
		c1.4302-2.0886,1.8237-4.6045,1.0044-6.9893c-0.0073-0.022-0.0112-0.0444-0.019-0.0664c-0.1333-0.5084-0.834-3.564,0.2246-7.4484
		c2.2788,7.6085,5.1162,20.2999,4.5889,35.1676l-5.2451-3.6953c-4.0518-2.8555-9.4111-3.0459-13.6563-0.4844
		c-4.2451,2.561-6.5752,7.3892-5.9395,12.3062l7.5,58c0.8145,6.3027,6.1904,10.8989,12.3809,10.8984
		c0.5342,0,1.0752-0.0342,1.6182-0.1045c6.8467-0.8857,11.6797-7.1533,10.7939-14l-3.8682-29.9155
		c3.166,1.7222,6.9502,2.0034,10.3672,0.7202c3.4053-1.2793,6.0576-3.9688,7.3125-7.332
		c-0.1919,30.1587-1.1016,68.88-3.6855,112.3892c-0.4102,6.8916,4.8447,12.8101,11.7363,13.2192
		c0.2529,0.0151,0.5029,0.0225,0.7529,0.0225c6.5645,0,12.0723-5.1201,12.4658-11.7593
		C160.8264,227.8516,159.4636,160.1415,158.8479,139.5068z M125.9122,153.403l-1.1396-6.9843l4.6147-1.0988l0.4326,2.6509
		c0.1099,0.6732,0.2072,1.0027,0.866,1.0684c0.6656,0.1071,1.9132,0.0762,3.0486-0.1091c2.4413-0.3984,4.4495-1.5898,3.9827-4.4509
		c-0.3914-2.3985-2.5834-2.8616-5.4906-3.2079c-3.9525-0.3915-8.3928-1.3951-9.2853-6.8648
		c-0.8788-5.3858,2.611-9.1522,8.6695-10.1408c3.0302-0.4944,6.1557-0.3994,8.382,0.2738l1.0917,6.6904l-4.5319,1.0848
		l-0.3982-2.4404c-0.1099-0.6732-0.2486-0.9959-0.9142-1.1035c-0.6588-0.0652-1.7733-0.0129-2.741,0.145
		c-2.0192,0.3295-3.7895,1.3961-3.405,3.7521c0.3982,2.4404,2.5214,2.7421,5.7155,3.2578c4.0283,0.5954,8.2943,1.3246,9.2074,6.9211
		c0.9337,5.7222-2.4507,9.6005-9.2254,10.7059C131.9299,154.0195,128.6287,154.1694,125.9122,153.403z"/>
	<rect x="114.4581" y="326.6006" width="2.7502" height="96.6014"/>
	<rect x="130.9594" y="346.726" width="2.7502" height="96.6014"/>
	<rect x="122.7088" y="364.8387" width="2.7502" height="138.6129"/>
</g>
</svg>
