<svg xmlns="http://www.w3.org/2000/svg" viewBox="0 0 64 64"><g id="Layer_36" data-name="Layer 36"><path d="M32,3A21,21,0,0,0,11,24V60a1,1,0,0,0,1,1H52a1,1,0,0,0,1-1V24A21,21,0,0,0,32,3ZM51,59H13V24a19,19,0,0,1,38,0Z"/><path d="M19,34a1,1,0,0,0,0,2H45a1,1,0,0,0,0-2Z"/><path d="M45,40H19a1,1,0,0,0,0,2H45A1,1,0,0,0,45,40Z"/><path d="M45,45H19a1,1,0,0,0,0,2H45A1,1,0,0,0,45,45Z"/><path d="M45,50H19a1,1,0,0,0,0,2H45A1,1,0,0,0,45,50Z"/><path d="M26.05,22.73l6,6L38.76,22C42.85,17.2,36,11.72,32,16.76,27.51,11.28,20.57,18.22,26.05,22.73Z"/></g></svg>