<svg width="30" height="30" viewBox="0 0 30 30" fill="none" xmlns="http://www.w3.org/2000/svg">
<path d="M15.0243 3.6377C10.8868 3.6377 7.52426 7.0002 7.52426 11.1377V14.7502C7.52426 15.5127 7.19926 16.6752 6.81176 17.3252L5.37426 19.7127C4.48676 21.1877 5.09926 22.8252 6.72426 23.3752C12.1118 25.1752 17.9243 25.1752 23.3118 23.3752C24.8243 22.8752 25.4868 21.0877 24.6618 19.7127L23.2243 17.3252C22.8493 16.6752 22.5243 15.5127 22.5243 14.7502V11.1377C22.5243 7.0127 19.1493 3.6377 15.0243 3.6377Z" stroke="#B1CF58" stroke-width="2" stroke-miterlimit="10" stroke-linecap="round"/>
<path d="M17.3374 3.9998C16.9499 3.8873 16.5499 3.7998 16.1374 3.7498C14.9374 3.5998 13.7874 3.6873 12.7124 3.9998C13.0749 3.0748 13.9749 2.4248 15.0249 2.4248C16.0749 2.4248 16.9749 3.0748 17.3374 3.9998Z" stroke="#B1CF58" stroke-width="2" stroke-miterlimit="10" stroke-linecap="round" stroke-linejoin="round"/>
<path d="M18.7744 23.8252C18.7744 25.8877 17.0869 27.5752 15.0244 27.5752C13.9994 27.5752 13.0494 27.1502 12.3744 26.4752C11.6994 25.8002 11.2744 24.8502 11.2744 23.8252" stroke="#B1CF58" stroke-width="2" stroke-miterlimit="10"/>
</svg>
