<svg width="26" height="26" viewBox="0 0 26 26" fill="none" xmlns="http://www.w3.org/2000/svg">
<path d="M22.7778 11.7778H14.2222V3.22222C14.2222 2.55407 13.6681 2 13 2C12.3319 2 11.7778 2.55407 11.7778 3.22222V11.7778H3.22222C2.55407 11.7778 2 12.3319 2 13C2 13.6681 2.55407 14.2222 3.22222 14.2222H11.7778V22.7778C11.7778 23.4459 12.3319 24 13 24C13.6681 24 14.2222 23.4459 14.2222 22.7778V14.2222H22.7778C23.4459 14.2222 24 13.6681 24 13C24 12.3319 23.4459 11.7778 22.7778 11.7778Z" fill="#9AB44D"/>
</svg>
