<?xml version="1.0" encoding="UTF-8" standalone="no"?> <svg width="64" height="64" viewBox="0 0 64 64" fill="none" xmlns="http://www.w3.org/2000/svg">
<path d="M24.5798 22.4695L28.5798 26.4695C28.6733 26.5622 28.7841 26.6355 28.9059 26.6853C29.0277 26.7351 29.1582 26.7603 29.2898 26.7595C29.5108 26.7588 29.7253 26.685 29.8998 26.5495C30.7598 25.8795 38.3298 19.9195 39.6798 16.6795C40.6798 14.3195 39.8398 7.48953 39.7498 6.67953C39.7225 6.4583 39.6221 6.25252 39.4645 6.0949C39.3068 5.93727 39.1011 5.83684 38.8798 5.80953C38.1098 5.71953 31.2698 4.90953 28.8798 5.87953C25.6398 7.22953 19.6798 14.7995 19.0098 15.6595C18.8608 15.859 18.7915 16.1069 18.8155 16.3547C18.8396 16.6025 18.9552 16.8325 19.1398 16.9995L23.1398 20.9995L15.0298 29.1195C14.4713 28.7957 13.8232 28.6607 13.1819 28.7346C12.5405 28.8085 11.9401 29.0872 11.4698 29.5295L4.71982 36.3495C4.44709 36.6168 4.23042 36.9357 4.0825 37.2877C3.93459 37.6397 3.8584 38.0177 3.8584 38.3995C3.8584 38.7814 3.93459 39.1593 4.0825 39.5114C4.23042 39.8634 4.44709 40.1823 4.71982 40.4495L5.17982 40.9195C5.72404 41.4625 6.46103 41.7681 7.22982 41.7695C7.98379 41.7577 8.70259 41.4487 9.22982 40.9095L15.9998 34.1495C16.4595 33.6875 16.7508 33.0845 16.8269 32.4371C16.9031 31.7898 16.7597 31.1357 16.4198 30.5795L24.5798 22.4695ZM21.1798 16.2395C23.2498 13.6695 27.5698 8.65953 29.6898 7.77953C30.9798 7.24953 35.0998 7.45953 37.8698 7.77953C38.1698 10.5495 38.3798 14.6695 37.8698 15.9595C36.9998 18.0595 31.9998 22.3795 29.3898 24.4495L25.9998 21.0495L27.6598 19.3895C27.8106 19.1957 27.8847 18.9531 27.8682 18.7081C27.8516 18.4631 27.7454 18.2328 27.57 18.061C27.3945 17.8892 27.1619 17.788 26.9166 17.7767C26.6713 17.7654 26.4304 17.8447 26.2398 17.9995L24.5798 19.6595L21.1798 16.2395ZM14.6398 32.7295L7.86982 39.4995C7.69703 39.6634 7.46796 39.7548 7.22982 39.7548C6.99167 39.7548 6.7626 39.6634 6.58982 39.4995V39.4995L6.12982 38.9995C6.04393 38.9165 5.97562 38.8171 5.92897 38.7071C5.88232 38.5972 5.85828 38.479 5.85828 38.3595C5.85828 38.2401 5.88232 38.1219 5.92897 38.0119C5.97562 37.902 6.04393 37.8025 6.12982 37.7195L12.8998 30.9995C13.0714 30.8334 13.3009 30.7404 13.5398 30.7404C13.7787 30.7404 14.0082 30.8334 14.1798 30.9995L14.6398 31.4595C14.8054 31.6295 14.898 31.8573 14.898 32.0945C14.898 32.3318 14.8054 32.5596 14.6398 32.7295V32.7295Z" fill="black"/>
<path d="M59.1499 20.7695L58.6899 20.3095C58.1335 19.7864 57.3985 19.4951 56.6349 19.4951C55.8712 19.4951 55.1362 19.7864 54.5799 20.3095L47.8099 27.0795C47.347 27.54 47.0543 28.144 46.9798 28.7927C46.9053 29.4414 47.0534 30.0961 47.3999 30.6495L39.1699 38.8795L37.1699 36.8795C36.7774 36.4828 36.3102 36.1679 35.7953 35.953C35.2803 35.738 34.7279 35.6274 34.1699 35.6274C33.6119 35.6274 33.0594 35.738 32.5445 35.953C32.0295 36.1679 31.5623 36.4828 31.1699 36.8795L27.1199 40.9995C26.6709 41.4486 26.409 42.0512 26.3867 42.6859C26.3644 43.3205 26.5835 43.94 26.9999 44.4195L21.0699 50.3495C20.9773 50.4427 20.904 50.5533 20.8541 50.6749C20.8043 50.7964 20.7788 50.9266 20.7793 51.058C20.7798 51.1894 20.8061 51.3194 20.8568 51.4407C20.9075 51.5619 20.9816 51.6719 21.0749 51.7645C21.1681 51.8571 21.2787 51.9304 21.4002 51.9802C21.5218 52.0301 21.652 52.0555 21.7834 52.055C21.9148 52.0546 22.0448 52.0282 22.166 51.9775C22.2872 51.9268 22.3973 51.8527 22.4899 51.7595L28.3999 45.8495L30.2999 47.7395L24.3799 53.6595C24.2861 53.7525 24.2117 53.8631 24.161 53.9849C24.1102 54.1068 24.0841 54.2375 24.0841 54.3695C24.0841 54.5015 24.1102 54.6322 24.161 54.7541C24.2117 54.8759 24.2861 54.9865 24.3799 55.0795C24.4733 55.1722 24.5841 55.2455 24.706 55.2953C24.8278 55.345 24.9583 55.3702 25.0899 55.3695C25.2215 55.3702 25.3519 55.345 25.4738 55.2953C25.5956 55.2455 25.7064 55.1722 25.7999 55.0795L31.7199 49.1595L33.6099 51.0595L27.6999 56.9995C27.6066 57.0921 27.5325 57.2021 27.4818 57.3233C27.4311 57.4445 27.4048 57.5746 27.4043 57.706C27.4038 57.8373 27.4293 57.9675 27.4791 58.0891C27.529 58.2107 27.6023 58.3213 27.6949 58.4145C27.7874 58.5077 27.8975 58.5818 28.0187 58.6325C28.1399 58.6832 28.2699 58.7096 28.4013 58.71C28.5327 58.7105 28.6629 58.6851 28.7845 58.6352C28.9061 58.5854 29.0166 58.5121 29.1099 58.4195L34.9999 52.4595C35.48 52.8787 36.1016 53.0996 36.7386 53.0773C37.3756 53.055 37.9802 52.7913 38.4299 52.3395L42.5299 48.2395C42.9265 47.8471 43.2415 47.3798 43.4564 46.8649C43.6713 46.3499 43.782 45.7975 43.782 45.2395C43.782 44.6815 43.6713 44.129 43.4564 43.6141C43.2415 43.0991 42.9265 42.6319 42.5299 42.2395L40.5299 40.2395L48.7599 32.0095C49.3133 32.3559 49.968 32.5041 50.6166 32.4296C51.2653 32.3551 51.8694 32.0624 52.3299 31.5995L59.0999 24.8295C59.6333 24.2915 59.9367 23.5672 59.946 22.8096C59.9553 22.052 59.6699 21.3205 59.1499 20.7695V20.7695ZM41.1499 43.6995C41.5627 44.1137 41.7945 44.6747 41.7945 45.2595C41.7945 45.8443 41.5627 46.4053 41.1499 46.8195L37.0499 50.9195C36.9492 51.0166 36.8148 51.0709 36.6749 51.0709C36.535 51.0709 36.4005 51.0166 36.2999 50.9195L28.5299 43.1495C28.4799 43.1016 28.44 43.0442 28.4125 42.9806C28.3851 42.9171 28.3706 42.8487 28.3699 42.7795C28.3698 42.7087 28.3839 42.6386 28.4114 42.5733C28.4389 42.508 28.4792 42.4489 28.5299 42.3995L32.6299 38.2995C32.8343 38.0939 33.0774 37.9307 33.3451 37.8194C33.6128 37.7081 33.8999 37.6507 34.1899 37.6507C34.4798 37.6507 34.7669 37.7081 35.0346 37.8194C35.3023 37.9307 35.5454 38.0939 35.7499 38.2995L37.7499 40.2995L36.2099 41.8395C36.1161 41.9325 36.0417 42.0431 35.991 42.1649C35.9402 42.2868 35.9141 42.4175 35.9141 42.5495C35.9141 42.6815 35.9402 42.8122 35.991 42.9341C36.0417 43.0559 36.1161 43.1665 36.2099 43.2595C36.3033 43.3522 36.4141 43.4255 36.536 43.4753C36.6578 43.525 36.7883 43.5502 36.9199 43.5495C37.0515 43.5502 37.1819 43.525 37.3038 43.4753C37.4256 43.4255 37.5364 43.3522 37.6299 43.2595L39.1699 41.7195L41.1499 43.6995ZM57.7399 23.4695L50.9999 30.2295C50.8295 30.398 50.5995 30.4926 50.3599 30.4926C50.1202 30.4926 49.8902 30.398 49.7199 30.2295L49.2599 29.7695C49.1723 29.6878 49.103 29.5886 49.0565 29.4783C49.01 29.368 48.9873 29.2492 48.9899 29.1295C48.9897 29.0102 49.0135 28.892 49.0598 28.7821C49.1062 28.6721 49.1742 28.5726 49.2599 28.4895L55.9999 21.7195C56.0823 21.6364 56.1805 21.5707 56.2887 21.526C56.3968 21.4814 56.5128 21.4588 56.6299 21.4595C56.7495 21.4569 56.8684 21.4796 56.9787 21.5261C57.089 21.5727 57.1882 21.642 57.2699 21.7295V21.7295L57.7399 22.1895C57.9084 22.3599 58.0029 22.5898 58.0029 22.8295C58.0029 23.0691 57.9084 23.2991 57.7399 23.4695V23.4695Z" fill="black"/>
</svg>
