<svg width="28" height="28" viewBox="0 0 28 28" fill="none" xmlns="http://www.w3.org/2000/svg">
<g opacity="0.5">
<path d="M3.5 10.6283V17.36C3.5 19.8333 3.5 19.8333 5.83333 21.4083L12.25 25.1183C13.2183 25.6783 14.7933 25.6783 15.75 25.1183L22.1667 21.4083C24.5 19.8333 24.5 19.8333 24.5 17.3717V10.6283C24.5 8.16667 24.5 8.16667 22.1667 6.59167L15.75 2.88167C14.7933 2.32167 13.2183 2.32167 12.25 2.88167L5.83333 6.59167C3.5 8.16667 3.5 8.16667 3.5 10.6283Z" stroke="white" stroke-width="1.75" stroke-linecap="round" stroke-linejoin="round"/>
<path d="M14 17.5C15.933 17.5 17.5 15.933 17.5 14C17.5 12.067 15.933 10.5 14 10.5C12.067 10.5 10.5 12.067 10.5 14C10.5 15.933 12.067 17.5 14 17.5Z" stroke="white" stroke-width="1.75" stroke-linecap="round" stroke-linejoin="round"/>
</g>
</svg>
