<svg width="26" height="26" viewBox="0 0 26 26" fill="none" xmlns="http://www.w3.org/2000/svg">
<path d="M23.8335 7.0415H17.3335" stroke="#9AB44D" stroke-width="1.5" stroke-miterlimit="10" stroke-linecap="round" stroke-linejoin="round"/>
<path d="M6.49984 7.0415H2.1665" stroke="#9AB44D" stroke-width="1.5" stroke-miterlimit="10" stroke-linecap="round" stroke-linejoin="round"/>
<path d="M10.8332 10.8333C12.9272 10.8333 14.6248 9.13575 14.6248 7.04167C14.6248 4.94759 12.9272 3.25 10.8332 3.25C8.73909 3.25 7.0415 4.94759 7.0415 7.04167C7.0415 9.13575 8.73909 10.8333 10.8332 10.8333Z" stroke="#9AB44D" stroke-width="1.5" stroke-miterlimit="10" stroke-linecap="round" stroke-linejoin="round"/>
<path d="M23.8333 18.9585H19.5" stroke="#9AB44D" stroke-width="1.5" stroke-miterlimit="10" stroke-linecap="round" stroke-linejoin="round"/>
<path d="M8.6665 18.9585H2.1665" stroke="#9AB44D" stroke-width="1.5" stroke-miterlimit="10" stroke-linecap="round" stroke-linejoin="round"/>
<path d="M15.1667 22.7498C17.2607 22.7498 18.9583 21.0522 18.9583 18.9582C18.9583 16.8641 17.2607 15.1665 15.1667 15.1665C13.0726 15.1665 11.375 16.8641 11.375 18.9582C11.375 21.0522 13.0726 22.7498 15.1667 22.7498Z" stroke="#9AB44D" stroke-width="1.5" stroke-miterlimit="10" stroke-linecap="round" stroke-linejoin="round"/>
</svg>
