<?xml version="1.0" encoding="utf-8"?>
<!-- Generator: Adobe Illustrator 22.0.1, SVG Export Plug-In . SVG Version: 6.00 Build 0)  -->
<svg version="1.1" id="Layer_1" xmlns="http://www.w3.org/2000/svg" xmlns:xlink="http://www.w3.org/1999/xlink" x="0px" y="0px"
	 viewBox="0 0 100 100" style="enable-background:new 0 0 100 100;" xml:space="preserve">
<title>Artboard 7</title>
<path d="M85,19.2c0.6-0.6,0.6-1.5,0-2.1c0,0-0.1-0.1-0.1-0.1l-8.7-6.7c-0.3-0.2-0.6-0.3-0.9-0.3H42.5c-0.8,0-1.5,0.7-1.5,1.5v0v11
	c0,0.8,0.7,1.5,1.5,1.5h9.1l-7.4,10.7c-0.5,0.7-0.3,1.6,0.4,2.1s1.6,0.3,2.1-0.4l8.5-12.3l6.8,3.2V34h-3.3c-0.5,0-1,0.2-1.2,0.7
	l-20.2,30c-0.2,0.2-0.3,0.5-0.2,0.8v23c0,0.8,0.7,1.5,1.5,1.5h41c0.8,0,1.5-0.7,1.5-1.5v-53c0-0.8-0.7-1.5-1.5-1.5H76v-5.7L85,19.2z
	 M40,87V68h38v19H40z M78,65H40.7l18.8-28H78V65z M65,34v-7.7c0-0.6-0.3-1.1-0.9-1.3l-8-3.8c-0.2-0.1-0.4-0.1-0.6-0.1H44V13h30.7
	l6.9,5.3l-8.2,8.3c-0.3,0.3-0.4,0.7-0.4,1.1V34H65z"/>
<circle cx="31.5" cy="19.5" r="2.5"/>
<circle cx="22.5" cy="26.5" r="2.5"/>
<circle cx="22.5" cy="13.5" r="2.5"/>
</svg>
