<svg width="28" height="28" viewBox="0 0 28 28" fill="none" xmlns="http://www.w3.org/2000/svg">
<path d="M4.0835 20.9999V8.16659C4.0835 3.49992 5.25016 2.33325 9.91683 2.33325H18.0835C22.7502 2.33325 23.9168 3.49992 23.9168 8.16659V19.8333C23.9168 19.9966 23.9168 20.1599 23.9052 20.3233" fill="white"/>
<path d="M4.0835 20.9999V8.16659C4.0835 3.49992 5.25016 2.33325 9.91683 2.33325H18.0835C22.7502 2.33325 23.9168 3.49992 23.9168 8.16659V19.8333C23.9168 19.9966 23.9168 20.1599 23.9052 20.3233" stroke="white" stroke-width="1.75" stroke-linecap="round" stroke-linejoin="round"/>
<path d="M7.4085 17.5H23.9168V21.5833C23.9168 23.835 22.0852 25.6667 19.8335 25.6667H8.16683C5.91516 25.6667 4.0835 23.835 4.0835 21.5833V20.825C4.0835 18.9933 5.57683 17.5 7.4085 17.5Z" fill="#B8D468" stroke="white" stroke-width="1.75" stroke-linecap="round" stroke-linejoin="round"/>
<path d="M9.3335 8.16699H18.6668" stroke="#B8D468" stroke-width="1.75" stroke-linecap="round" stroke-linejoin="round"/>
<path d="M9.3335 12.25H15.1668" stroke="#B8D468" stroke-width="1.75" stroke-linecap="round" stroke-linejoin="round"/>
</svg>
