<?xml version="1.0" encoding="UTF-8" standalone="no"?> <svg id="line" xmlns="http://www.w3.org/2000/svg" viewBox="0 0 64 64"><path d="M2.51,59.32l.98,1.742a31.827,31.827,0,0,1,31.02,0l.98-1.742A33.578,33.578,0,0,0,20,55.06v-3.3a5.207,5.207,0,0,0-1.535-3.707l-1.758-1.758a3.243,3.243,0,0,1,4.586-4.586L23,43.414V44.99A5.015,5.015,0,0,0,28.01,50H30a1,1,0,0,0,1-1V47.01A5.015,5.015,0,0,0,25.99,42H24.414l-1.707-1.707a5.242,5.242,0,0,0-7.414,7.414l1.758,1.758A3.222,3.222,0,0,1,18,51.758v3.3A33.578,33.578,0,0,0,2.51,59.32ZM25,44h.99A3.014,3.014,0,0,1,29,47.01V48h-.99A3.014,3.014,0,0,1,25,44.99Z"/><path d="M57.914,11.5l1.262-1.262a3.169,3.169,0,0,0,0-4.476L56.238,2.824a3.169,3.169,0,0,0-4.476,0L50.5,4.086l-.793-.793a1,1,0,0,0-1.414,0L42,9.586,37.707,5.293A1,1,0,0,0,36,6V16a1,1,0,0,0,.066.341c.011.03.028.058.042.088a1.014,1.014,0,0,0,.151.228c.014.015.019.035.034.05L38.586,19H33.277l-4.762-2.857A1,1,0,0,0,27,17V27a1,1,0,0,0,1.515.857L33.277,25H44.586l3.707,3.707a1,1,0,0,0,1.414,0l12-12a1,1,0,0,0,0-1.414ZM32,23.434l-3,1.8V18.767l3,1.8Zm21.176-19.2a1.2,1.2,0,0,1,1.648,0l2.938,2.938a1.166,1.166,0,0,1,0,1.648L56.5,10.086,51.914,5.5ZM38,8.414,40.586,11,38,13.586ZM34,23V21h6.586l2,2Zm15,3.586-3.293-3.293-4-4L38.414,16l4.293-4.293L49,5.414,59.586,16Z"/><path d="M22,28.836A2.839,2.839,0,0,1,24.836,26H25V24h-.164A4.841,4.841,0,0,0,20,28.836V33h2Z"/><path d="M25,20H23.9A7.906,7.906,0,0,0,16,27.9V33h2V27.9A5.9,5.9,0,0,1,23.9,22H25Z"/><rect x="16" y="35" width="2" height="2"/><rect x="20" y="35" width="2" height="2"/></svg>